:FULLY-SPECIFIED
:FORCE-ALL-JOINTS-BE-3DOF
:DEGREES
68
root 5.93604 16.7376 -28.0534 10.8641 3.2343 -3.91723
lfemur -34.8723 14.62 -17.3616
ltibia 51.8397 -0 0
lfoot -20.6864 -11.474 0.206254
ltoes 32.0962 -0 0
rfemur -16.6957 -1.62252 21.9382
rtibia 30.1677 -0 0
rfoot -27.4469 -17.3104 -0.00349537
rtoes -9.12348 0 0
lowerback -3.54528 2.49933 3.45847
upperback -1.42494 3.22199 -0.214375
thorax 0.720417 1.60441 -2.02276
lowerneck -9.97292 -2.57028 2.14328
upperneck -5.52949 -3.5716 2.13419
head -0.0775684 -1.80023 0.202199
lclavicle 2.26863e-14 6.55989e-15 0
lhumerus -40.6949 -12.4655 93.8824
lradius 44.275 -0 0
lwrist 7.95726 0 0
lhand -10.9341 2.35359 0.00142608
lfingers 7.12502 -0 0
lthumb 15.0838 31.7827 0.00104595
rclavicle 2.26863e-14 6.55989e-15 0
rhumerus -39.4218 1.72633 -91.7374
rradius 42.8626 -0 0
rwrist 6.94674 0 0
rhand -24.4739 -21.9409 0.00743781
rfingers 7.12502 -0 0
rthumb 2.01964 -51.9098 0.00727574
69
root 5.9428 16.7318 -28.0323 10.8342 3.3774 -4.0743
lfemur -35.2262 14.5433 -16.9564
ltibia 51.8046 -0 0
lfoot -20.3421 -10.8998 0.244164
ltoes 31.4042 -0 0
rfemur -16.4423 -1.9193 22.0429
rtibia 29.9938 -0 0
rfoot -27.5208 -17.1882 -0.00436123
rtoes -9.39319 0 0
lowerback -3.47547 2.57019 3.5111
upperback -1.44684 3.31794 -0.170066
thorax 0.663756 1.65106 -2.00715
lowerneck -9.99885 -2.64957 2.18993
upperneck -5.54705 -3.68152 2.11097
head -0.0810799 -1.85605 0.184105
lclavicle 2.26863e-14 6.55989e-15 0
lhumerus -40.8163 -12.2234 93.7211
lradius 44.3786 -0 0
lwrist 8.06732 0 0
lhand -10.8234 2.35751 0.00182526
lfingers 7.12502 -0 0
lthumb 15.1904 31.7782 0.00134913
rclavicle 2.26863e-14 6.55989e-15 0
rhumerus -39.3175 1.90403 -91.5966
rradius 43.0333 -0 0
rwrist 6.88321 0 0
rhand -24.3166 -21.8797 0.00928667
rfingers 7.12502 -0 0
rthumb 2.1715 -51.8468 0.00908365
70
root 5.94827 16.7266 -28.0119 10.7995 3.51731 -4.23859
lfemur -35.5645 14.4198 -16.5193
ltibia 51.7098 -0 0
lfoot -20.0146 -10.2281 0.274562
ltoes 30.664 -0 0
rfemur -16.1684 -2.2168 22.1473
rtibia 29.806 -0 0
rfoot -27.6 -17.0601 -0.00512996
rtoes -9.62331 0 0
lowerback -3.40685 2.64646 3.55695
upperback -1.47146 3.42137 -0.121157
thorax 0.604669 1.70142 -1.98278
lowerneck -10.0256 -2.73213 2.24317
upperneck -5.55802 -3.79674 2.08299
head -0.0826444 -1.91454 0.163277
lclavicle 2.26863e-14 6.55989e-15 0
lhumerus -40.9508 -11.9635 93.5536
lradius 44.4788 -0 0
lwrist 8.18269 0 0
lhand -10.7064 2.36494 0.00221272
lfingers 7.12502 -0 0
lthumb 15.3031 31.7768 0.00165033
rclavicle 2.26863e-14 6.55989e-15 0
rhumerus -39.2061 2.07498 -91.438
rradius 43.2058 -0 0
rwrist 6.82664 0 0
rhand -24.1532 -21.8084 0.0109776
rfingers 7.12502 -0 0
rthumb 2.32934 -51.7736 0.0107362
71
root 5.9532 16.7221 -27.9916 10.7607 3.65284 -4.40824
lfemur -35.8854 14.253 -16.0556
ltibia 51.5589 -0 0
lfoot -19.7061 -9.46975 0.296877
ltoes 29.8847 -0 0
rfemur -15.8774 -2.51228 22.2502
rtibia 29.6067 -0 0
rfoot -27.6835 -16.9275 -0.00576466
rtoes -9.81355 0 0
lowerback -3.34001 2.72718 3.59592
upperback -1.49843 3.53097 -0.0683316
thorax 0.543837 1.75486 -1.95029
lowerneck -10.0528 -2.81704 2.30218
upperneck -5.56257 -3.91594 2.05072
head -0.0823321 -1.97501 0.140038
lclavicle 2.26863e-14 6.55989e-15 0
lhumerus -41.0966 -11.6893 93.3817
lradius 44.5748 -0 0
lwrist 8.30204 0 0
lhand -10.5844 2.37564 0.00257353
lfingers 7.12502 -0 0
lthumb 15.4206 31.7782 0.00193867
rclavicle 2.26863e-14 6.55989e-15 0
rhumerus -39.0889 2.23782 -91.2638
rradius 43.3786 -0 0
rwrist 6.77725 0 0
rhand -23.9854 -21.7283 0.012444
rfingers 7.12502 -0 0
rthumb 2.49139 -51.6914 0.0121679
72
root 5.9583 16.7182 -27.971 10.7181 3.7828 -4.58138
lfemur -36.1869 14.0464 -15.5708
ltibia 51.3557 -0 0
lfoot -19.419 -8.63577 0.310798
ltoes 29.0756 -0 0
rfemur -15.5729 -2.80295 22.3505
rtibia 29.3983 -0 0
rfoot -27.7702 -16.792 -0.00623612
rtoes -9.96361 0 0
lowerback -3.27554 2.81139 3.6279
upperback -1.52737 3.64542 -0.0122737
thorax 0.481938 1.81074 -1.91033
lowerneck -10.0804 -2.90337 2.36617
upperneck -5.5609 -4.03777 2.01462
head -0.0802143 -2.0368 0.114706
lclavicle 2.26863e-14 6.55989e-15 0
lhumerus -41.2518 -11.404 93.207
lradius 44.6658 -0 0
lwrist 8.42405 0 0
lhand -10.4589 2.38939 0.00289329
lfingers 7.12502 -0 0
lthumb 15.5415 31.7824 0.00220307
rclavicle 2.26863e-14 6.55989e-15 0
rhumerus -38.9672 2.39118 -91.0764
rradius 43.55 -0 0
rwrist 6.73523 0 0
rhand -23.8151 -21.6404 0.0136284
rfingers 7.12502 -0 0
rthumb 2.65591 -51.6014 0.0133227
73
root 5.96429 16.7148 -27.9497 10.6725 3.90601 -4.75615
lfemur -36.4672 13.8033 -15.0704
ltibia 51.1038 -0 0
lfoot -19.1558 -7.73703 0.316283
ltoes 28.2458 -0 0
rfemur -15.2583 -3.08603 22.4471
rtibia 29.1832 -0 0
rfoot -27.8592 -16.6549 -0.00652355
rtoes -10.0732 0 0
lowerback -3.21405 2.89813 3.65278
upperback -1.5579 3.76341 0.0463361
thorax 0.419652 1.86843 -1.86354
lowerneck -10.1079 -2.99019 2.43433
upperneck -5.55319 -4.16093 1.97517
head -0.0763634 -2.09923 0.0876007
lclavicle 2.26863e-14 6.55989e-15 0
lhumerus -41.4146 -11.1109 93.0314
lradius 44.7511 -0 0
lwrist 8.54739 0 0
lhand -10.3313 2.40594 0.00315864
lfingers 7.12502 -0 0
lthumb 15.6644 31.7893 0.00243262
rclavicle 2.26863e-14 6.55989e-15 0
rhumerus -38.8424 2.53372 -90.878
rradius 43.7181 -0 0
rwrist 6.7008 0 0
rhand -23.644 -21.546 0.0144844
rfingers 7.12502 -0 0
rthumb 2.82113 -51.5048 0.0141552
74
root 5.97192 16.7119 -27.927 10.6242 4.02131 -4.93068
lfemur -36.7243 13.5267 -14.5599
ltibia 50.8069 -0 0
lfoot -18.9188 -6.78442 0.313541
ltoes 27.4045 -0 0
rfemur -14.9372 -3.35869 22.5392
rtibia 28.9638 -0 0
rfoot -27.9496 -16.5177 -0.00661524
rtoes -10.142 0 0
lowerback -3.15614 2.98647 3.67044
upperback -1.58966 3.88364 0.106819
thorax 0.357656 1.92731 -1.81057
lowerneck -10.1351 -3.07656 2.50586
upperneck -5.53964 -4.28405 1.93282
head -0.070853 -2.16164 0.0590434
lclavicle 2.26863e-14 6.55989e-15 0
lhumerus -41.5833 -10.8133 92.8566
lradius 44.8298 -0 0
lwrist 8.67072 0 0
lhand -10.2029 2.42507 0.00335767
lfingers 7.12502 -0 0
lthumb 15.7881 31.7987 0.00261693
rclavicle 2.26863e-14 6.55989e-15 0
rhumerus -38.7158 2.66411 -90.671
rradius 43.8813 -0 0
rwrist 6.67415 0 0
rhand -23.474 -21.4461 0.0149778
rfingers 7.12502 -0 0
rthumb 2.9853 -51.4028 0.0146322
75
root 5.9819 16.7094 -27.9026 10.5741 4.12753 -5.10307
lfemur -36.9563 13.22 -14.0452
ltibia 50.4687 -0 0
lfoot -18.7104 -5.78884 0.303029
ltoes 26.5609 -0 0
rfemur -14.613 -3.61808 22.6257
rtibia 28.7426 -0 0
rfoot -28.0402 -16.382 -0.00650875
rtoes -10.1697 0 0
lowerback -3.10239 3.07542 3.68076
upperback -1.62227 4.00477 0.168499
thorax 0.296625 1.98673 -1.75205
lowerneck -10.1618 -3.16157 2.57996
upperneck -5.52045 -4.40583 1.88804
head -0.063758 -2.22334 0.0293542
lclavicle 2.26863e-14 6.55989e-15 0
lhumerus -41.7559 -10.5146 92.6845
lradius 44.9012 -0 0
lwrist 8.79273 0 0
lhand -10.0751 2.44654 0.00348029
lfingers 7.12502 -0 0
lthumb 15.9111 31.8104 0.00274643
rclavicle 2.26863e-14 6.55989e-15 0
rhumerus -38.5889 2.78104 -90.4578
rradius 44.038 -0 0
rwrist 6.65548 0 0
rhand -23.3069 -21.3418 0.0150876
rfingers 7.12502 -0 0
rthumb 3.14665 -51.2964 0.0147336
76
root 5.99496 16.7073 -27.876 10.5225 4.2235 -5.27144
lfemur -37.161 12.8859 -13.5319
ltibia 50.0928 -0 0
lfoot -18.5332 -4.76115 0.285432
ltoes 25.7242 -0 0
rfemur -14.2892 -3.86134 22.7059
rtibia 28.5218 -0 0
rfoot -28.1301 -16.2492 -0.00621103
rtoes -10.156 0 0
lowerback -3.05343 3.16405 3.68362
upperback -1.65539 4.1255 0.230702
thorax 0.237232 2.04604 -1.68862
lowerneck -10.1875 -3.24428 2.6558
upperneck -5.49582 -4.52491 1.84132
head -0.0551549 -2.28367 -0.00114591
lclavicle 2.26863e-14 6.55989e-15 0
lhumerus -41.9305 -10.2179 92.5168
lradius 44.9645 -0 0
lwrist 8.91208 0 0
lhand -9.94935 2.47011 0.0035185
lfingers 7.12502 -0 0
lthumb 16.0322 31.8244 0.00281266
rclavicle 2.26863e-14 6.55989e-15 0
rhumerus -38.4632 2.88324 -90.2408
rradius 44.1863 -0 0
rwrist 6.64501 0 0
rhand -23.1446 -21.2344 0.0148068
rfingers 7.12502 -0 0
rthumb 3.30344 -51.1868 0.0144526
77
root 6.01182 16.7054 -27.8466 10.4702 4.30807 -5.43389
lfemur -37.3362 12.5275 -13.0257
ltibia 49.683 -0 0
lfoot -18.3896 -3.71222 0.261645
ltoes 24.9036 -0 0
rfemur -13.9691 -4.08557 22.7791
rtibia 28.304 -0 0
rfoot -28.2184 -16.1208 -0.0057382
rtoes -10.1006 0 0
lowerback -3.00984 3.25139 3.6789
upperback -1.68866 4.2445 0.292757
thorax 0.180149 2.10462 -1.62091
lowerneck -10.2122 -3.32377 2.73258
upperneck -5.46595 -4.63997 1.79311
head -0.0451216 -2.34194 -0.0321355
lclavicle 2.26863e-14 6.55989e-15 0
lhumerus -42.1052 -9.92644 92.3554
lradius 45.0189 -0 0
lwrist 9.02744 0 0
lhand -9.82702 2.49556 0.00346664
lfingers 7.12502 -0 0
lthumb 16.15 31.8405 0.00280856
rclavicle 2.26863e-14 6.55989e-15 0
rhumerus -38.34 2.96942 -90.0222
rradius 44.3246 -0 0
rwrist 6.64293 0 0
rhand -22.9888 -21.125 0.0141421
rfingers 7.12502 -0 0
rthumb 3.4539 -51.0752 0.0137965
